<svg width="19" height="19" viewBox="0 0 19 19" fill="none" xmlns="http://www.w3.org/2000/svg">
<path d="M9.78662 2.64673C11.6472 2.64673 11.8801 2.65574 12.6138 2.68774C13.1829 2.69945 13.7458 2.80802 14.2788 3.00806C14.7344 3.18426 15.1482 3.45376 15.4937 3.79907C15.839 4.14435 16.1093 4.55752 16.2856 5.01294C16.489 5.55332 16.5971 6.12508 16.606 6.70239C16.6486 7.43144 16.6489 7.66768 16.6489 9.52856C16.6489 11.3899 16.6387 11.6228 16.606 12.3557C16.5945 12.9255 16.4869 13.4875 16.2866 14.0208C16.11 14.4762 15.84 14.8902 15.4946 15.2356C15.1493 15.5809 14.7361 15.851 14.2808 16.0276C13.7476 16.2273 13.184 16.3353 12.6147 16.3469C11.8874 16.3888 11.6487 16.3889 9.78857 16.3889C7.928 16.3889 7.69514 16.3789 6.96143 16.3469C6.39132 16.3281 5.8285 16.2121 5.29736 16.0042C4.842 15.8279 4.42798 15.5582 4.08252 15.2131C3.73699 14.8679 3.4672 14.4537 3.29053 13.9983C3.09017 13.4643 2.98264 12.9021 2.97119 12.3323C2.92852 11.6031 2.92822 11.3657 2.92822 9.50513C2.92822 7.64422 2.93844 7.4117 2.97119 6.67896C2.98233 6.10969 3.09038 5.54598 3.29053 5.01294C3.4667 4.55748 3.73616 4.14334 4.08154 3.7981C4.42694 3.45293 4.84088 3.184 5.29639 3.00806C5.82875 2.80739 6.39163 2.69883 6.96045 2.68774C7.68785 2.64662 7.92649 2.64673 9.78662 2.64673ZM9.75928 3.85278C7.90302 3.85278 7.69932 3.86203 6.9751 3.89478C6.54083 3.90084 6.10994 3.98133 5.70264 4.13208C5.10178 4.36223 4.6254 4.83489 4.39307 5.43579C4.24124 5.8474 4.16171 6.28226 4.15674 6.72095C4.11636 7.45923 4.11572 7.64939 4.11572 9.5061C4.11572 11.3621 4.12398 11.5665 4.15674 12.2903C4.16385 12.7244 4.24335 13.1543 4.39307 13.5618C4.50799 13.8586 4.68406 14.1282 4.90967 14.3528C5.13519 14.5773 5.4054 14.7519 5.70264 14.8655C6.10974 15.017 6.54076 15.0975 6.9751 15.1028C7.71225 15.1447 7.90228 15.1438 9.75928 15.1438C11.6153 15.1438 11.8197 15.1363 12.5435 15.1028C12.978 15.0972 13.4085 15.0167 13.8159 14.8655C14.1122 14.7513 14.3813 14.5763 14.606 14.3518C14.8306 14.1273 15.0062 13.858 15.1206 13.5618C15.2724 13.1501 15.3519 12.7153 15.3569 12.2766H15.3657C15.3985 11.5482 15.3979 11.3484 15.3979 9.49243C15.3979 7.63568 15.3897 7.43185 15.3569 6.70728C15.3498 6.27325 15.2703 5.84324 15.1206 5.43579C15.0061 5.13951 14.8306 4.87036 14.606 4.64575C14.3814 4.42122 14.1121 4.24656 13.8159 4.13208C13.4086 3.98052 12.9781 3.9 12.5435 3.89478C11.8067 3.85287 11.616 3.85278 9.75928 3.85278ZM9.78271 5.97778C10.7171 5.97778 11.6132 6.34933 12.2739 7.01001C12.9346 7.67071 13.3062 8.56685 13.3062 9.50122C13.3061 10.4355 12.9345 11.3318 12.2739 11.9924C11.6133 12.6529 10.7169 13.0237 9.78271 13.0237C8.84849 13.0236 7.95211 12.653 7.2915 11.9924C6.6309 11.3318 6.26034 10.4355 6.26025 9.50122C6.26025 8.56703 6.63104 7.67067 7.2915 7.01001C7.95211 6.3494 8.84849 5.97789 9.78271 5.97778ZM9.78271 7.21118C9.17584 7.21129 8.59368 7.45295 8.16455 7.88208C7.73549 8.31128 7.49463 8.89335 7.49463 9.50024C7.49466 10.1072 7.73544 10.6892 8.16455 11.1184C8.59368 11.5475 9.17584 11.7892 9.78271 11.7893C10.3897 11.7893 10.9726 11.5476 11.4019 11.1184C11.8309 10.6892 12.0717 10.1071 12.0718 9.50024C12.0718 8.89339 11.8309 8.31127 11.4019 7.88208C10.9726 7.45285 10.3897 7.21118 9.78271 7.21118ZM13.4458 5.02661C13.8993 5.02661 14.2669 5.39446 14.2671 5.8479C14.2671 6.30151 13.8994 6.66919 13.4458 6.66919C12.9923 6.66909 12.6245 6.30145 12.6245 5.8479C12.6247 5.39452 12.9924 5.02671 13.4458 5.02661Z" fill="white"/>
</svg>
