<svg width="21" height="21" viewBox="0 0 21 21" fill="none" xmlns="http://www.w3.org/2000/svg">
<path fill-rule="evenodd" clip-rule="evenodd" d="M4.13126 4.71734C4.13292 4.71734 4.09126 4.76068 4.03876 4.81235C3.83709 5.00818 3.41959 5.41568 3.41538 6.26818C3.40876 7.46068 4.19292 9.67484 7.96876 13.4498C11.7271 17.2065 13.9379 17.9998 15.1329 17.9998H15.1504C16.0029 17.9957 16.4096 17.5773 16.6063 17.3765C16.6663 17.3148 16.7146 17.2698 16.7488 17.2415C17.5788 16.4065 18.0038 15.7848 17.9996 15.3865C17.9938 14.9798 17.4879 14.499 16.7888 13.834C16.5663 13.6223 16.3246 13.3923 16.0696 13.1373C15.4088 12.4782 15.0813 12.5907 14.3613 12.844C13.3654 13.1932 11.9988 13.6682 9.87542 11.544C7.74876 9.41901 8.22459 8.05401 8.57292 7.05818C8.82459 6.33818 8.93959 6.00985 8.27792 5.34818C8.01876 5.08984 7.78626 4.84485 7.57209 4.61985C6.91126 3.92485 6.43459 3.42235 6.03042 3.41651H6.02376C5.62459 3.41651 5.00459 3.84318 4.12709 4.72068C4.12959 4.71818 4.13042 4.71734 4.13126 4.71734ZM15.1338 19.2498C13.0571 19.2498 10.3496 17.5965 7.08542 14.334C3.80876 11.0582 2.15292 8.34234 2.16535 6.26151C2.17292 4.88651 2.89376 4.18235 3.16459 3.91818C3.17876 3.90068 3.22709 3.85318 3.24376 3.83651C4.43876 2.64068 5.24459 2.15735 6.04626 2.16638C6.97709 2.17901 7.63959 2.87568 8.47792 3.75818C8.68542 3.97651 8.91042 4.21401 9.16126 4.46401C10.3779 5.68068 10.0313 6.67318 9.75292 7.46984C9.44959 8.33901 9.18709 9.08901 10.7588 10.6607C12.3321 12.2323 13.0821 11.9698 13.9479 11.664C14.7454 11.3857 15.7354 11.0373 16.9538 12.254C17.2004 12.5007 17.4346 12.7232 17.6504 12.929C18.5371 13.7715 19.2371 14.4373 19.2489 15.3707C19.2588 16.1665 18.7754 16.9773 17.5821 18.1715L17.0538 17.8132L17.5004 18.2498C17.2363 18.5207 16.5329 19.2423 15.1571 19.2498H15.1338Z" fill="white"/>
</svg>
