<svg width="10" height="10" viewBox="0 0 10 10" fill="none" xmlns="http://www.w3.org/2000/svg">
<path d="M8.50033 5.58335H5.58366V8.50002C5.58366 8.82086 5.32116 9.08335 5.00033 9.08335C4.67949 9.08335 4.41699 8.82086 4.41699 8.50002V5.58335H1.50033C1.17949 5.58335 0.916992 5.32085 0.916992 5.00002C0.916992 4.67919 1.17949 4.41669 1.50033 4.41669H4.41699V1.50002C4.41699 1.17919 4.67949 0.916687 5.00033 0.916687C5.32116 0.916687 5.58366 1.17919 5.58366 1.50002V4.41669H8.50033C8.82116 4.41669 9.08366 4.67919 9.08366 5.00002C9.08366 5.32085 8.82116 5.58335 8.50033 5.58335Z" fill="#343434"/>
</svg>
