<svg width="20" height="19" viewBox="0 0 20 19" fill="none" xmlns="http://www.w3.org/2000/svg">
<path d="M15.4414 4.09825C14.0166 2.66587 12.1195 1.8811 10.1004 1.8811C5.94044 1.8811 2.54997 5.27158 2.54997 9.43158C2.54997 10.7649 2.90044 12.0602 3.55568 13.203L2.48901 17.1192L6.48901 16.0678C7.59377 16.6697 8.83568 16.9897 10.1004 16.9897C14.2604 16.9897 17.6509 13.5992 17.6509 9.4392C17.6509 7.42015 16.8662 5.52301 15.4414 4.09825ZM10.1004 15.7097C8.97282 15.7097 7.86806 15.4049 6.90044 14.8335L6.67187 14.6963L4.29473 15.3211L4.92711 13.0049L4.77473 12.7687C4.14997 11.7706 3.81473 10.6125 3.81473 9.43158C3.81473 5.97253 6.63377 3.15348 10.0928 3.15348C11.769 3.15348 13.3462 3.80872 14.5271 4.99729C15.7157 6.18587 16.3633 7.76301 16.3633 9.4392C16.3785 12.8982 13.5595 15.7097 10.1004 15.7097ZM13.5442 11.0163C13.3538 10.9249 12.4243 10.4678 12.2566 10.3992C12.0814 10.3382 11.9595 10.3078 11.83 10.4906C11.7004 10.6811 11.3423 11.1078 11.2357 11.2297C11.129 11.3592 11.0147 11.3744 10.8243 11.2754C10.6338 11.184 10.0243 10.9782 9.30806 10.3382C8.74425 9.83539 8.37092 9.21825 8.25663 9.02777C8.14996 8.83729 8.24139 8.73825 8.34044 8.6392C8.42425 8.55539 8.53092 8.41825 8.62235 8.31158C8.71377 8.20491 8.75187 8.1211 8.81282 7.9992C8.87378 7.86967 8.8433 7.76301 8.79758 7.67158C8.75187 7.58015 8.37092 6.65063 8.21854 6.26967C8.06616 5.90396 7.90616 5.94967 7.79187 5.94206C7.67758 5.94206 7.55568 5.94206 7.42616 5.94206C7.29663 5.94206 7.09854 5.98777 6.9233 6.17825C6.75568 6.36872 6.26806 6.82587 6.26806 7.75539C6.26806 8.68491 6.94616 9.58396 7.03758 9.70587C7.12901 9.83539 8.37092 11.7402 10.2604 12.5554C10.71 12.7535 11.0604 12.8678 11.3347 12.9516C11.7843 13.0963 12.1957 13.0735 12.5233 13.0278C12.889 12.9744 13.6433 12.5706 13.7957 12.1287C13.9557 11.6868 13.9557 11.3135 13.9023 11.2297C13.849 11.1459 13.7347 11.1078 13.5442 11.0163Z" fill="white"/>
</svg>
